<?xml version="1.0" standalone="no"?>
<!DOCTYPE svg PUBLIC "-//W3C//DTD SVG 1.1//EN" "http://www.w3.org/Graphics/SVG/1.1/DTD/svg11.dtd" >
<svg xmlns="http://www.w3.org/2000/svg" xmlns:xlink="http://www.w3.org/1999/xlink" version="1.1">
<metadata>
Created by FontForge 20150318 at Thu May  7 07:37:35 2015
 By uniteet7
 The digitally encoded machine readable software for producing the
 Typefaces licensed to you is copyrighted (c) 1988, 1991, 1995, 2002 Adobe Systems.
 All Rights Reserved. This software is the property of Adobe Systems
 Incorporated and its licensors, and may not be reproduced, used,
 displayed, modified, disclosed, or transferred  without the express
 written approval of Adobe.
 
 The digitally encoded machine readable outline data for producing the Typefaces 
 provided as part of your laser printer is copyrighted (c) 1981, 2002 Heidelberger Druckmaschinen AG. 
 All rights reserved. This data is the property of Heidelberger Druckmaschinen AG, 
 and may not be reproduced, used, displayed, modified, disclosed or transferred 
 without the express written approval of Heidelberger Druckmaschinen AG. 
</metadata>
<defs>
<font id="MemphisLTStd-Medium" horiz-adv-x="611" >
  <font-face 
    font-family="Memphis LT Std"
    font-weight="500"
    font-stretch="normal"
    units-per-em="1000"
    panose-1="2 6 6 3 2 2 5 2 4 3"
    ascent="722"
    descent="-278"
    x-height="462"
    cap-height="722"
    bbox="-168 -250 1000 971"
    underline-thickness="50"
    underline-position="-50"
    stemh="68"
    stemv="86"
    unicode-range="U+0020-FB02"
  />
<missing-glyph horiz-adv-x="500" 
d="M0 0v700h500v-700h-500zM250 395l170 255h-340zM280 350l170 -255v510zM80 50h340l-170 255zM50 605v-510l170 255z" />
    <glyph glyph-name="fi" unicode="fi" 
d="M287 0h-258v67h85v328h-84v67h84v141c0 67 50 119 119 119h54v-67h-36c-30 0 -51 -20 -51 -64v-129h87v-67h-87v-328h87v-67zM582 0h-245v67h82v328h-79v67h165v-395h77v-67zM381 575v92h122v-92h-122z" />
    <glyph glyph-name="fl" unicode="fl" 
d="M287 0h-258v67h85v328h-84v67h84v141c0 67 50 119 119 119h54v-67h-36c-30 0 -51 -20 -51 -64v-129h87v-67h-87v-328h87v-67zM582 0h-245v67h82v588h-79v67h165v-655h77v-67z" />
    <glyph glyph-name=".notdef" horiz-adv-x="500" 
d="M0 0v700h500v-700h-500zM250 395l170 255h-340zM280 350l170 -255v510zM80 50h340l-170 255zM50 605v-510l170 255z" />
    <glyph glyph-name="space" unicode=" " horiz-adv-x="250" 
 />
    <glyph glyph-name="exclam" unicode="!" horiz-adv-x="278" 
d="M176 178h-66l-19 544h105zM138 122c35 0 64 -29 64 -64c0 -36 -29 -63 -64 -63s-63 27 -63 63c0 35 28 64 63 64z" />
    <glyph glyph-name="quotedbl" unicode="&#x22;" horiz-adv-x="333" 
d="M126 657l-18 -204c-1 -8 -4 -31 -22 -31s-21 23 -22 31l-18 204c-2 25 -6 81 40 81s42 -56 40 -81zM287 657l-18 -204c-1 -8 -4 -31 -22 -31s-21 23 -22 31l-18 204c-2 25 -6 81 40 81s42 -56 40 -81z" />
    <glyph glyph-name="numbersign" unicode="#" horiz-adv-x="500" 
d="M496 281v-67h-100l-30 -214h-72l30 214h-119l-30 -214h-72l30 214h-99v67h108l20 138h-100v67h109l29 214h73l-30 -214h119l29 214h73l-30 -214h90v-67h-99l-20 -138h91zM353 419h-119l-20 -138h119z" />
    <glyph glyph-name="dollar" unicode="$" horiz-adv-x="500" 
d="M212 409v208c-66 0 -109 -43 -109 -112c0 -57 60 -90 109 -96zM261 308v-245c74 0 141 31 141 116c0 88 -74 107 -141 129zM88 60v-60h-68v222h64c-1 -62 45 -159 128 -159v255c-90 24 -187 70 -187 200c0 89 75 167 187 167v74h49v-74c40 0 79 -29 113 -55v42h68v-189
h-65c-5 31 -19 64 -39 90s-46 44 -77 44v-220c111 -28 219 -77 219 -211c0 -124 -105 -191 -219 -191v-82h-49v82c-46 0 -91 30 -124 65z" />
    <glyph glyph-name="percent" unicode="%" horiz-adv-x="833" 
d="M526 153c0 -56 41 -101 98 -101c56 0 98 46 98 101c0 53 -45 99 -98 99c-54 0 -98 -45 -98 -99zM149 -16l470 738h63l-471 -738h-62zM307 555c0 53 -45 99 -98 99c-54 0 -98 -45 -98 -99c0 -56 41 -101 98 -101c56 0 98 46 98 101zM456 153c0 93 72 167 166 167
c93 0 170 -74 170 -167c0 -94 -77 -169 -170 -169c-94 0 -166 75 -166 169zM377 555c0 -94 -75 -169 -168 -169c-94 0 -168 75 -168 169c0 93 74 167 168 167c93 0 168 -74 168 -167z" />
    <glyph glyph-name="ampersand" unicode="&#x26;" horiz-adv-x="722" 
d="M397 149l-166 177c-51 -35 -98 -86 -98 -152c0 -60 53 -104 108 -104c67 0 117 36 156 79zM249 435c46 27 95 77 95 132c0 50 -37 86 -88 86c-48 0 -81 -36 -81 -83c0 -54 40 -98 74 -135zM539 0l-86 89c-60 -60 -135 -105 -222 -105c-108 0 -193 81 -193 189
c0 96 66 158 140 209c-48 52 -86 112 -86 186c0 84 72 154 171 154c89 0 164 -68 164 -157c0 -80 -61 -138 -123 -188l147 -157c27 27 69 110 84 174h-70v69h216v-69h-63c-21 -87 -68 -186 -112 -232l85 -93h90v-69h-142z" />
    <glyph glyph-name="quoteright" unicode="&#x2019;" horiz-adv-x="222" 
d="M36 513l62 209h89l-62 -209h-89z" />
    <glyph glyph-name="parenleft" unicode="(" horiz-adv-x="278" 
d="M195 738h64c-11 -20 -25 -37 -35 -56c-30 -55 -61 -107 -79 -167c-17 -57 -29 -132 -29 -192c0 -160 46 -301 140 -430h-68c-87 125 -146 269 -146 423c0 153 63 299 153 422z" />
    <glyph glyph-name="parenright" unicode=")" horiz-adv-x="278" 
d="M90 -107h-68c94 129 140 270 140 430c0 60 -12 135 -29 192c-18 60 -49 112 -79 167c-10 19 -24 36 -35 56h64c90 -123 153 -269 153 -422c0 -154 -59 -298 -146 -423z" />
    <glyph glyph-name="asterisk" unicode="*" horiz-adv-x="389" 
d="M223 722v-106l97 33l15 -51l-100 -30l56 -90l-46 -29l-53 93l-69 -86l-40 32l74 86l-103 38l20 46l97 -38v102h52z" />
    <glyph glyph-name="plus" unicode="+" horiz-adv-x="600" 
d="M262 269v193h75v-193h193v-75h-193v-194h-75v194h-193v75h193z" />
    <glyph glyph-name="comma" unicode="," horiz-adv-x="250" 
d="M49 -89l62 209h89l-62 -209h-89z" />
    <glyph glyph-name="hyphen" unicode="-" horiz-adv-x="333" 
d="M290 216h-247v78h247v-78z" />
    <glyph glyph-name="period" unicode="." horiz-adv-x="250" 
d="M125 122c35 0 64 -29 64 -64c0 -36 -29 -63 -64 -63s-63 27 -63 63c0 35 28 64 63 64z" />
    <glyph glyph-name="slash" unicode="/" horiz-adv-x="278" 
d="M-9 -16l224 754h71l-226 -754h-69z" />
    <glyph glyph-name="zero" unicode="0" horiz-adv-x="500" 
d="M38 226v248c0 164 79 248 212 248s213 -84 213 -248v-248c0 -164 -80 -242 -213 -242s-212 78 -212 242zM377 227v250c0 96 -14 167 -126 167c-114 0 -127 -71 -127 -167v-250c0 -96 14 -165 127 -165c112 0 126 69 126 165z" />
    <glyph glyph-name="one" unicode="1" horiz-adv-x="500" 
d="M392 0h-267v67h90v572h-90v67h176v-639h91v-67z" />
    <glyph glyph-name="two" unicode="2" horiz-adv-x="500" 
d="M458 0h-420v68l283 348c25 30 41 69 41 109c0 66 -50 119 -117 119c-93 0 -124 -69 -124 -152v-51h-82v49c0 130 73 232 217 232c111 0 192 -88 192 -197c0 -74 -30 -119 -74 -174l-227 -284h229v130h82v-197z" />
    <glyph glyph-name="three" unicode="3" horiz-adv-x="500" 
d="M37 216h84c0 -83 35 -154 125 -154c86 0 131 44 131 131c0 96 -59 129 -148 134v67c79 0 138 42 138 125c0 73 -45 125 -122 125c-99 0 -123 -96 -119 -177h-84v21c0 131 77 234 217 234c119 0 194 -98 194 -204c0 -60 -29 -129 -88 -158c54 -23 98 -80 98 -172
c0 -143 -108 -204 -204 -204c-130 0 -222 78 -222 192v40z" />
    <glyph glyph-name="four" unicode="4" horiz-adv-x="500" 
d="M194 0v67h89v117h-253v68l264 454h75v-455h85v-67h-85v-117h85v-67h-260zM283 251v293h-2l-173 -293h175z" />
    <glyph glyph-name="five" unicode="5" horiz-adv-x="500" 
d="M98 364v342h307v-67h-229v-185h62c158 0 225 -95 225 -243c0 -140 -79 -227 -221 -227c-134 0 -209 90 -207 220h82c-3 -72 38 -142 125 -142c92 0 135 56 135 153c0 112 -65 161 -173 161c-36 0 -72 -5 -106 -12z" />
    <glyph glyph-name="six" unicode="6" horiz-adv-x="500" 
d="M248 62c79 0 128 72 128 148c0 87 -39 148 -132 148c-90 0 -121 -69 -121 -149c0 -75 46 -147 125 -147zM452 532h-82c-7 70 -49 112 -121 112c-75 0 -126 -46 -126 -118v-141c41 33 79 51 136 51c86 0 203 -59 203 -223s-126 -229 -213 -229s-212 65 -212 235v298
c0 122 73 205 212 205c113 0 203 -76 203 -190z" />
    <glyph glyph-name="seven" unicode="7" horiz-adv-x="500" 
d="M120 499h-82v207h430v-68l-265 -638h-90l261 639h-254v-140z" />
    <glyph glyph-name="eight" unicode="8" horiz-adv-x="500" 
d="M249 321c-61 0 -135 -44 -135 -128s74 -131 135 -131s136 47 136 131s-75 128 -136 128zM253 644c-72 0 -130 -46 -130 -124c0 -79 54 -125 126 -125s126 46 126 125c0 78 -50 124 -122 124zM249 722c115 0 204 -73 204 -195c0 -81 -28 -119 -90 -165
c67 -50 100 -94 100 -184c0 -111 -105 -194 -213 -194s-214 83 -214 194c0 90 34 134 101 184c-64 46 -92 84 -92 165c0 122 89 195 204 195z" />
    <glyph glyph-name="nine" unicode="9" horiz-adv-x="500" 
d="M251 644c-79 0 -128 -72 -128 -148c0 -87 39 -148 132 -148c91 0 121 70 121 149c0 75 -46 147 -125 147zM47 174h82c7 -70 49 -112 121 -112c75 0 126 46 126 118v141c-41 -33 -79 -51 -136 -51c-86 0 -203 59 -203 223s126 229 213 229s212 -65 212 -235v-298
c0 -122 -73 -205 -212 -205c-113 0 -203 76 -203 190z" />
    <glyph glyph-name="colon" unicode=":" horiz-adv-x="250" 
d="M125 472c35 0 64 -29 64 -64c0 -36 -29 -63 -64 -63s-63 27 -63 63c0 35 28 64 63 64zM125 122c35 0 64 -29 64 -64c0 -36 -29 -63 -64 -63s-63 27 -63 63c0 35 28 64 63 64z" />
    <glyph glyph-name="semicolon" unicode=";" horiz-adv-x="250" 
d="M49 -89l62 209h89l-62 -209h-89zM136 472c35 0 64 -29 64 -64c0 -36 -29 -63 -64 -63s-63 27 -63 63c0 35 28 64 63 64z" />
    <glyph glyph-name="less" unicode="&#x3c;" horiz-adv-x="600" 
d="M554 52v-82l-508 225v72l508 225v-82l-404 -179z" />
    <glyph glyph-name="equal" unicode="=" horiz-adv-x="600" 
d="M530 344v-75h-461v75h461zM530 194v-75h-461v75h461z" />
    <glyph glyph-name="greater" unicode="&#x3e;" horiz-adv-x="600" 
d="M46 52l404 179l-404 179v82l508 -225v-72l-508 -225v82z" />
    <glyph glyph-name="question" unicode="?" horiz-adv-x="500" 
d="M187 190v221c12 -2 26 -3 39 -3c63 0 130 34 130 129c0 70 -51 119 -121 119c-76 0 -117 -66 -111 -124h-83c0 132 88 206 200 206s200 -74 200 -206c0 -100 -62 -181 -168 -195v-147h-86zM231 122c35 0 64 -29 64 -64c0 -36 -29 -63 -64 -63s-63 27 -63 63
c0 35 28 64 63 64z" />
    <glyph glyph-name="at" unicode="@" horiz-adv-x="800" 
d="M516 433c0 46 -13 70 -45 70c-51 0 -141 -79 -141 -202c0 -62 28 -90 61 -90c48 0 111 71 125 222zM624 541l-67 -272c-5 -19 -7 -71 35 -71c77 0 130 125 130 218c0 122 -111 273 -302 273c-151 0 -296 -113 -296 -356c0 -156 131 -294 306 -294c97 0 154 23 216 52
l13 -41c-53 -38 -143 -66 -228 -66c-285 0 -410 214 -410 361c0 235 183 393 399 393c201 0 358 -137 358 -321c0 -112 -72 -260 -202 -260c-73 0 -99 63 -98 78h-2c-11 -19 -62 -75 -126 -77c-33 -1 -105 17 -105 134c0 83 68 265 215 265c51 0 61 -29 76 -55l11 39h77z
" />
    <glyph glyph-name="A" unicode="A" horiz-adv-x="722" 
d="M202 653v69h328v-69h-87l194 -584h67v-69h-251v69h87l-57 178h-250l-59 -178h87v-69h-243v69h69l203 584h-88zM461 316l-100 308h-2l-101 -308h203z" />
    <glyph glyph-name="B" unicode="B" 
d="M206 348v-279h77c129 0 177 47 177 141c0 98 -58 138 -178 138h-76zM206 653v-236h99c65 0 129 49 129 112c0 79 -52 124 -134 124h-94zM25 0v69h86v584h-84v69h270c159 0 232 -58 232 -179c0 -89 -55 -137 -118 -153v-2c47 -10 144 -48 144 -188
c0 -150 -111 -200 -261 -200h-269z" />
    <glyph glyph-name="C" unicode="C" horiz-adv-x="778" 
d="M697 498h-73c-30 103 -121 154 -225 154c-156 0 -262 -129 -262 -288s106 -294 262 -294c121 0 199 51 243 160h88c-41 -147 -157 -246 -329 -246c-214 0 -359 173 -359 378s145 376 354 376c80 0 162 -25 223 -77v61h78v-224z" />
    <glyph glyph-name="D" unicode="D" horiz-adv-x="722" 
d="M206 654v-585h87c191 0 296 135 296 296c0 163 -99 289 -306 289h-77zM111 653h-86v69h303c182 0 356 -126 356 -361c0 -179 -120 -361 -376 -361h-283v69h86v584z" />
    <glyph glyph-name="E" unicode="E" 
d="M584 0h-558v69h86v584h-86v69h558v-193h-86v124h-291v-230h245v-78h-245v-276h291v146h86v-215z" />
    <glyph glyph-name="F" unicode="F" 
d="M116 653h-86v69h553v-193h-86v124h-286v-230h252v-78h-252v-276h102v-69h-285v69h88v584z" />
    <glyph glyph-name="G" unicode="G" horiz-adv-x="833" 
d="M709 471h-69c-11 53 -43 98 -85 130s-95 51 -149 51c-123 0 -274 -100 -274 -291s151 -291 274 -291c122 0 218 88 240 178h-189v78h349v-78h-84v-248h-78v86c-76 -70 -144 -102 -238 -102c-204 0 -369 168 -369 377s165 377 369 377c81 0 163 -30 225 -88v72h78v-251z
" />
    <glyph glyph-name="H" unicode="H" horiz-adv-x="722" 
d="M294 0h-270v69h83v584h-83v69h271v-69h-93v-236h318v236h-92v69h270v-69h-83v-584h83v-69h-271v69h93v270h-318v-270h92v-69z" />
    <glyph glyph-name="I" unicode="I" horiz-adv-x="333" 
d="M300 0h-269v69h87v584h-85v69h269v-69h-89v-584h87v-69z" />
    <glyph glyph-name="J" unicode="J" horiz-adv-x="333" 
d="M28 653v69h282v-69h-90v-583c0 -111 -42 -188 -158 -188h-50v86h38c48 0 75 21 75 70v615h-97z" />
    <glyph glyph-name="K" unicode="K" horiz-adv-x="667" 
d="M33 722h269v-69h-91v-278h2l255 278h-77v69h259v-69h-66l-261 -284v-2l257 -298h70v-69h-260v69h77l-254 291h-2v-291h90v-69h-270v69h85v584h-83v69z" />
    <glyph glyph-name="L" unicode="L" horiz-adv-x="556" 
d="M116 653h-86v69h274v-69h-93v-584h224v143h86v-212h-493v69h88v584z" />
    <glyph glyph-name="M" unicode="M" horiz-adv-x="889" 
d="M207 618v-549h91v-69h-267v69h86v584h-86v69h233l185 -493h2l187 493h220v-69h-86v-584h86v-69h-264v69h88v549h-2l-210 -555h-49l-212 555h-2z" />
    <glyph glyph-name="N" unicode="N" horiz-adv-x="722" 
d="M111 69v584h-80v69h186l303 -529h2v460h-83v69h254v-69h-81v-653h-82l-327 564h-2v-495h89v-69h-261v69h82z" />
    <glyph glyph-name="O" unicode="O" horiz-adv-x="833" 
d="M416 738c214 0 379 -168 379 -377s-165 -377 -379 -377s-379 168 -379 377s165 377 379 377zM416 652c-133 0 -284 -100 -284 -291s151 -291 284 -291s284 100 284 291s-151 291 -284 291z" />
    <glyph glyph-name="P" unicode="P" 
d="M212 653v-312h79c152 3 193 83 193 160c0 107 -59 152 -211 152h-61zM304 0h-273v69h86v584h-86v69h269c160 0 279 -62 279 -222c0 -186 -157 -228 -282 -228h-85v-203h92v-69z" />
    <glyph glyph-name="Q" unicode="Q" horiz-adv-x="833" 
d="M718 -118h-167l-56 111c-12 -3 -25 -5 -39 -7c-13 -1 -26 -2 -40 -2c-214 0 -379 168 -379 377s165 377 379 377s379 -168 379 -377c0 -152 -87 -282 -217 -341l35 -69h105v-69zM414 154l76 42l48 -97c90 41 162 130 162 262c0 191 -151 291 -284 291
s-284 -100 -284 -291s151 -291 284 -291c13 0 26 1 39 3z" />
    <glyph glyph-name="R" unicode="R" horiz-adv-x="667" 
d="M296 0h-266v69h85v584h-85v69h349c128 -2 201 -70 201 -180c0 -90 -46 -131 -123 -165v-2c57 0 95 -46 95 -106v-200h84v-69h-179v260c0 74 -63 84 -128 84h-119v-275h86v-69zM210 653v-240h106c88 0 169 29 169 130c0 98 -91 110 -169 110h-106z" />
    <glyph glyph-name="S" unicode="S" 
d="M46 245h77c18 -104 95 -179 202 -179c75 0 153 43 153 125c0 202 -434 81 -434 355c0 131 102 192 222 192c76 0 127 -24 181 -77v61h78v-212h-80c-14 84 -86 146 -171 146c-92 0 -140 -49 -140 -107c0 -173 434 -63 434 -352c0 -125 -103 -213 -224 -213
c-91 0 -147 19 -220 76v-60h-78v245z" />
    <glyph glyph-name="T" unicode="T" 
d="M119 522h-86v200h545v-200h-86v131h-139v-584h90v-69h-275v69h90v584h-139v-131z" />
    <glyph glyph-name="U" unicode="U" horiz-adv-x="722" 
d="M434 653v69h257v-69h-76v-397c0 -180 -103 -272 -254 -272s-254 92 -254 272v397h-76v69h257v-69h-86v-425c0 -108 68 -158 159 -158s159 50 159 158v425h-86z" />
    <glyph glyph-name="V" unicode="V" horiz-adv-x="667" 
d="M19 653v69h248v-69h-76l142 -478h2l152 478h-79v69h240v-69h-70l-209 -653h-74l-203 653h-73z" />
    <glyph glyph-name="W" unicode="W" horiz-adv-x="1000" 
d="M20 653v69h236v-69h-79l142 -485h2l136 485h-81v69h252v-69h-81l146 -487h2l142 487h-77v69h220v-69h-60l-193 -653h-71l-158 505h-2l-144 -505h-73l-198 653h-61z" />
    <glyph glyph-name="X" unicode="X" horiz-adv-x="667" 
d="M22 722h259v-69h-74l128 -210h2l134 210h-91v69h269v-69h-81l-182 -289v-2l183 -293h80v-69h-269v69h83l-131 209h-2l-133 -209h84v-69h-262v69h72l191 287v2l-179 295h-81v69z" />
    <glyph glyph-name="Y" unicode="Y" horiz-adv-x="667" 
d="M20 653v69h254v-69h-83l147 -239h2l142 239h-74v69h239v-69h-72l-194 -322v-262h85v-69h-266v69h86v255l-192 329h-74z" />
    <glyph glyph-name="Z" unicode="Z" horiz-adv-x="556" 
d="M40 527v195h494v-69l-394 -584h309v153h86v-222h-513v68l395 585h-291v-126h-86z" />
    <glyph glyph-name="bracketleft" unicode="[" horiz-adv-x="278" 
d="M255 -96h-206v818h206v-55h-132v-708h132v-55z" />
    <glyph glyph-name="backslash" unicode="\" horiz-adv-x="278" 
d="M63 738l224 -754h-69l-226 754h71z" />
    <glyph glyph-name="bracketright" unicode="]" horiz-adv-x="278" 
d="M229 -96h-206v55h132v708h-132v55h206v-818z" />
    <glyph glyph-name="asciicircum" unicode="^" horiz-adv-x="600" 
d="M84 341l180 365h72l180 -365h-83l-132 277h-2l-133 -277h-82z" />
    <glyph glyph-name="underscore" unicode="_" horiz-adv-x="500" 
d="M500 -125h-500v50h500v-50z" />
    <glyph glyph-name="quoteleft" unicode="&#x2018;" horiz-adv-x="222" 
d="M36 513l62 209h89l-62 -209h-89z" />
    <glyph glyph-name="a" unicode="a" 
d="M496 395v-328h78v-67h-154v70h-3c-32 -47 -98 -80 -157 -80c-143 0 -229 107 -229 242s86 240 229 240c59 0 125 -34 157 -80h3v70h154v-67h-78zM117 232c0 -89 46 -174 151 -174c75 0 150 64 150 174s-75 172 -150 172c-105 0 -151 -86 -151 -172z" />
    <glyph glyph-name="b" unicode="b" 
d="M107 67v588h-78v67h164v-325c43 48 97 75 154 75c143 0 232 -107 232 -242s-89 -240 -232 -240c-63 0 -121 24 -157 76h-2v-66h-159v67h78zM343 404c-75 0 -160 -64 -160 -174c0 -90 51 -172 160 -172c105 0 150 85 150 172s-65 174 -150 174z" />
    <glyph glyph-name="c" unicode="c" horiz-adv-x="500" 
d="M455 303h-64c-16 60 -71 101 -133 101c-82 0 -143 -76 -143 -172c0 -106 57 -174 145 -174c64 0 117 38 159 83l51 -46c-54 -64 -125 -105 -214 -105c-148 0 -227 105 -227 241s79 241 227 241c45 0 103 -23 129 -60h2v50h68v-159z" />
    <glyph glyph-name="d" unicode="d" 
d="M269 404c-105 0 -151 -86 -151 -173s46 -173 151 -173c75 0 149 63 149 173s-74 173 -149 173zM421 0v70h-2c-33 -46 -99 -80 -157 -80c-143 0 -230 106 -230 241s87 241 230 241c58 0 124 -34 155 -80h1v263h-88v67h174v-655h72v-67h-155z" />
    <glyph glyph-name="e" unicode="e" horiz-adv-x="556" 
d="M518 202h-401c8 -90 82 -144 153 -144c70 0 126 30 153 76h85c-25 -88 -132 -144 -239 -144c-128 0 -238 101 -238 239s110 243 244 243c145 0 243 -118 243 -270zM117 269h315c0 73 -77 135 -158 135c-79 0 -149 -60 -157 -135z" />
    <glyph glyph-name="f" unicode="f" horiz-adv-x="333" 
d="M296 0h-258v67h85v328h-84v67h84v141c0 67 50 119 119 119h54v-67h-36c-30 0 -51 -20 -51 -64v-129h87v-67h-87v-328h87v-67z" />
    <glyph glyph-name="g" unicode="g" 
d="M507 395v-372c0 -160 -83 -231 -240 -231c-94 0 -191 43 -223 138h98c19 -50 77 -70 129 -70c92 1 150 38 150 152v55h-2c-6 -27 -73 -77 -152 -77c-155 0 -230 124 -230 240s75 242 230 242c62 0 122 -28 159 -76h2v66h159v-67h-80zM274 404c-78 0 -151 -56 -151 -174
c0 -82 51 -172 151 -172c60 0 147 62 147 172c0 108 -53 174 -147 174z" />
    <glyph glyph-name="h" unicode="h" 
d="M272 0h-239v67h77v588h-77v67h163v-330c37 41 108 80 165 80c73 0 140 -46 140 -134v-271h73v-67h-236v67h77v250c0 57 -24 83 -62 83c-66 0 -111 -34 -157 -77v-256h76v-67z" />
    <glyph glyph-name="i" unicode="i" horiz-adv-x="333" 
d="M289 0h-245v67h82v328h-79v67h165v-395h77v-67zM88 575v92h122v-92h-122z" />
    <glyph glyph-name="j" unicode="j" horiz-adv-x="278" 
d="M32 462h171v-455c0 -141 -32 -205 -184 -215v76c67 0 98 39 98 104v423h-85v67zM201 575h-122v92h122v-92z" />
    <glyph glyph-name="k" unicode="k" horiz-adv-x="556" 
d="M255 0h-220v67h76v588h-72v67h158v-472l166 145h-62v67h224v-67h-53l-173 -154l173 -174h53v-67h-217v67h57l-168 168v-168h58v-67z" />
    <glyph glyph-name="l" unicode="l" horiz-adv-x="333" 
d="M289 0h-244v67h81v588h-79v67h165v-655h77v-67z" />
    <glyph glyph-name="m" unicode="m" horiz-adv-x="889" 
d="M199 462v-65c32 36 94 75 146 75c57 0 103 -33 128 -83c55 54 99 83 172 83c94 0 132 -86 132 -166v-239h65v-67h-221v67h70v248c0 54 -23 85 -80 85c-44 0 -102 -46 -123 -78v-255h66v-67h-220v67h68v248c0 54 -23 85 -80 85c-44 0 -102 -46 -123 -78v-255h70v-67h-229
v67h73v328h-73v67h159z" />
    <glyph glyph-name="n" unicode="n" 
d="M195 462v-70c37 41 108 80 165 80c73 0 142 -46 142 -134v-271h71v-67h-236v67h79v250c0 48 -23 83 -64 83c-66 0 -111 -34 -157 -77v-256h76v-67h-239v67h77v328h-77v67h163z" />
    <glyph glyph-name="o" unicode="o" horiz-adv-x="556" 
d="M31 231c0 131 91 241 247 241s247 -110 247 -241s-91 -241 -247 -241s-247 110 -247 241zM278 404c-97 0 -161 -70 -161 -173s64 -173 161 -173s161 70 161 173s-64 173 -161 173z" />
    <glyph glyph-name="p" unicode="p" 
d="M488 231c0 102 -64 173 -149 173s-149 -71 -149 -173s64 -173 149 -173s149 71 149 173zM186 462v-66c51 54 96 76 171 76c115 0 217 -101 217 -243s-102 -239 -217 -239c-69 0 -125 22 -165 73h-2v-204h86v-67h-250v67h78v536h-79v67h161z" />
    <glyph glyph-name="q" unicode="q" 
d="M507 395v-536h78v-67h-250v67h86v204h-2c-35 -44 -92 -73 -165 -73c-103 0 -217 90 -217 239c0 145 102 243 217 243c78 0 136 -28 169 -76h2v66h161v-67h-79zM273 404c-92 0 -150 -73 -150 -174s69 -172 150 -172c82 0 148 86 148 171c0 101 -53 175 -148 175z" />
    <glyph glyph-name="r" unicode="r" horiz-adv-x="389" 
d="M190 462v-91h2c33 74 99 101 178 101v-76c-142 -10 -175 -54 -175 -171v-158h86v-67h-249v67h77v328h-77v67h158z" />
    <glyph glyph-name="s" unicode="s" horiz-adv-x="500" 
d="M119 46v-46h-67v150h67c21 -67 93 -92 148 -92c40 0 113 4 113 67c0 118 -328 -7 -328 214c0 96 83 133 168 133c51 0 101 -20 140 -53v43h67v-141h-71c-8 26 -24 47 -46 61c-21 14 -46 22 -73 22c-59 0 -107 -11 -107 -63c0 -116 328 -10 328 -209
c0 -103 -88 -142 -180 -142c-57 0 -120 12 -159 56z" />
    <glyph glyph-name="t" unicode="t" horiz-adv-x="333" 
d="M197 462h88v-67h-88v-261c0 -64 9 -68 44 -68c14 0 29 2 43 3v-69c-24 -7 -49 -10 -74 -10c-80 0 -99 22 -99 121v284h-79v67h79v160h86v-160z" />
    <glyph glyph-name="u" unicode="u" 
d="M418 0v72h-2c-40 -51 -104 -82 -170 -82c-99 0 -150 48 -147 151v254h-67v67h153v-326c0 -52 38 -74 76 -74c66 0 111 34 157 77v256h-79v67h165v-395h74v-67h-160z" />
    <glyph glyph-name="v" unicode="v" horiz-adv-x="556" 
d="M21 462h220v-67h-70l105 -269h2l116 269h-75v67h216v-67h-63l-172 -395h-59l-159 395h-61v67z" />
    <glyph glyph-name="w" unicode="w" horiz-adv-x="833" 
d="M242 0l-151 395h-60v67h214v-67h-68l97 -262h2l103 262h-68v67h219v-67h-71l104 -260h2l100 260h-66v67h203v-67h-60l-157 -395h-54l-117 293h-2l-114 -293h-56z" />
    <glyph glyph-name="x" unicode="x" horiz-adv-x="556" 
d="M526 395h-60l-138 -159v-2l138 -167h60v-67h-215v67h53l-90 105h-2l-91 -105h53v-67h-203v67h60l139 159v2l-138 167h-60v67h214v-67h-51l85 -107h2l93 107h-51v67h202v-67z" />
    <glyph glyph-name="y" unicode="y" horiz-adv-x="556" 
d="M15 462h216v-67h-72l110 -278h2l120 278h-69v67h208v-67h-55l-239 -536h87v-67h-249v67h82l69 157l-154 379h-56v67z" />
    <glyph glyph-name="z" unicode="z" horiz-adv-x="444" 
d="M410 462v-68l-279 -327h211v99h78v-166h-397v69l279 326h-192v-86h-78v153h378z" />
    <glyph glyph-name="braceleft" unicode="{" horiz-adv-x="333" 
d="M127 30v174c0 63 -14 93 -76 111c62 19 76 49 76 112v174c0 117 55 137 155 137v-11c-55 -15 -81 -53 -81 -121v-164c0 -70 -4 -108 -73 -126v-2c69 -17 73 -55 73 -125v-164c0 -68 26 -106 81 -121v-11c-100 0 -155 20 -155 137z" />
    <glyph glyph-name="bar" unicode="|" horiz-adv-x="222" 
d="M74 -250v1000h75v-1000h-75z" />
    <glyph glyph-name="braceright" unicode="}" horiz-adv-x="333" 
d="M206 204v-174c0 -117 -55 -137 -155 -137v11c55 15 81 53 81 121v164c0 70 4 108 73 126v2c-69 17 -73 55 -73 125v164c0 68 -26 106 -81 121v11c100 0 155 -20 155 -137v-174c0 -63 14 -93 76 -112c-62 -18 -76 -48 -76 -111z" />
    <glyph glyph-name="asciitilde" unicode="~" horiz-adv-x="600" 
d="M495 307l36 -62c-30 -42 -63 -86 -125 -86c-37 0 -69 15 -102 33c-32 18 -66 35 -115 35c-44 0 -68 -37 -84 -72l-36 62c22 42 58 86 125 86c34 0 73 -15 111 -32c37 -16 75 -36 102 -36c40 0 65 37 88 72z" />
    <glyph glyph-name="exclamdown" unicode="&#xa1;" horiz-adv-x="278" 
d="M108 352h66l19 -544h-105zM139 535c35 0 64 -29 64 -64c0 -36 -29 -63 -64 -63s-63 27 -63 63c0 35 28 64 63 64z" />
    <glyph glyph-name="cent" unicode="&#xa2;" horiz-adv-x="500" 
d="M176 85l103 317c-7 2 -14 2 -21 2c-82 0 -143 -76 -143 -172c0 -66 22 -118 61 -147zM318 390l-106 -324c14 -5 31 -8 48 -8c64 0 117 38 159 83l51 -46c-54 -64 -125 -105 -214 -105c-24 0 -46 3 -66 9l-45 -136h-41l48 149c-81 37 -123 120 -123 219
c0 136 79 241 227 241c14 0 30 -2 44 -7l40 122h42l-45 -137c20 -9 37 -22 48 -38h2v50h68v-159h-64c-10 39 -37 70 -73 87z" />
    <glyph glyph-name="sterling" unicode="&#xa3;" horiz-adv-x="500" 
d="M21 -16v92c79 13 107 62 107 138c0 38 -9 67 -12 102h-95v67h81c-10 46 -26 97 -26 147c0 129 73 192 198 192c136 0 178 -107 178 -228h-84c0 73 -13 150 -103 150c-71 0 -105 -41 -105 -108c0 -47 17 -110 32 -153h125v-67h-113c1 -23 8 -48 8 -73
c0 -49 -4 -99 -31 -141c34 -25 76 -34 118 -34c81 0 94 56 94 126h84c2 -114 -37 -210 -166 -210c-60 0 -116 27 -163 62c-30 -38 -79 -62 -127 -62z" />
    <glyph glyph-name="fraction" unicode="&#x2044;" horiz-adv-x="167" 
d="M-105 -16h-63l441 738h62z" />
    <glyph glyph-name="yen" unicode="&#xa5;" horiz-adv-x="500" 
d="M482 639h-54l-89 -190h112v-67h-150l-8 -18v-30h158v-67h-158v-200h55v-67h-198v67h57v200h-157v67h156v30l-8 18h-150v67h112l-89 190h-54v67h189v-67h-62l108 -234h2l105 234h-54v67h177v-67z" />
    <glyph glyph-name="florin" unicode="&#x192;" horiz-adv-x="500" 
d="M499 720l-12 -70c-21 5 -44 14 -66 14c-59 0 -85 -62 -93 -111l-17 -109h119v-67h-126l-61 -382c-19 -119 -79 -165 -170 -165c-24 0 -50 4 -72 14l10 80c22 -10 46 -15 68 -12c61 8 77 35 90 123l49 342h-119v67h129l23 128c20 90 74 166 173 166c26 0 53 -10 75 -18z
" />
    <glyph glyph-name="section" unicode="&#xa7;" horiz-adv-x="500" 
d="M127 344l135 -140c21 -22 42 -28 61 -28c32 0 70 19 70 60c0 27 -25 53 -43 71l-130 127c-14 14 -33 24 -53 24c-35 0 -60 -26 -60 -64c0 -17 4 -34 20 -50zM404 722v-154h-68v99h-45c-71 0 -91 -23 -91 -75c0 -39 17 -58 27 -67l152 -150c48 -49 85 -77 85 -138
c0 -72 -56 -111 -126 -121c43 -42 48 -95 48 -111c0 -76 -59 -100 -135 -100h-150v153h68v-98h73c43 0 73 16 73 54c0 27 -15 55 -52 92l-142 144c-48 49 -85 77 -85 138c0 72 54 121 126 121c-16 19 -30 56 -30 94c0 80 58 119 133 119h139z" />
    <glyph glyph-name="currency" unicode="&#xa4;" horiz-adv-x="500" 
d="M-3 145l55 58c-33 40 -50 91 -50 146s15 111 52 148l-57 58l49 49l56 -56c38 32 95 50 151 50c53 0 107 -18 143 -49l57 56l51 -51l-55 -55c33 -37 49 -93 49 -148s-16 -109 -49 -150l54 -56l-47 -47l-56 58c-38 -36 -93 -54 -148 -54c-58 0 -112 17 -152 53l-55 -58z
M252 179c93 0 164 79 164 172c0 91 -71 170 -163 170c-95 0 -169 -77 -169 -172c0 -94 75 -170 168 -170z" />
    <glyph glyph-name="quotesingle" unicode="'" horiz-adv-x="222" 
d="M151 657l-18 -204c-1 -8 -4 -31 -22 -31s-21 23 -22 31l-18 204c-2 25 -6 81 40 81s42 -56 40 -81z" />
    <glyph glyph-name="quotedblleft" unicode="&#x201c;" horiz-adv-x="444" 
d="M54 513l62 209h89l-62 -209h-89zM239 513l62 209h89l-62 -209h-89z" />
    <glyph glyph-name="guillemotleft" unicode="&#xab;" horiz-adv-x="500" 
d="M316 256l121 -159h-78l-122 158l119 151h79zM142 256l121 -159h-78l-122 158l119 151h79z" />
    <glyph glyph-name="guilsinglleft" unicode="&#x2039;" horiz-adv-x="333" 
d="M145 256l121 -159h-78l-122 158l119 151h79z" />
    <glyph glyph-name="guilsinglright" unicode="&#x203a;" horiz-adv-x="333" 
d="M188 256l-119 150h79l119 -151l-122 -158h-78z" />
    <glyph glyph-name="endash" unicode="&#x2013;" horiz-adv-x="500" 
d="M500 225h-500v60h500v-60z" />
    <glyph glyph-name="dagger" unicode="&#x2020;" horiz-adv-x="500" 
d="M92 355h-58v176h58v-58h124v191h-65v58h199v-58h-66v-191h124v56h58v-174h-58v56h-124v-504h-68v504h-124v-56z" />
    <glyph glyph-name="daggerdbl" unicode="&#x2021;" horiz-adv-x="500" 
d="M92 57h-58v173h58v-56h124v280h-124v-55h-58v176h58v-59h124v148h-65v58h199v-58h-66v-148h124v59h58v-176h-58v55h-124v-280h124v56h58v-173h-58v55h-124v-148h64v-58h-199v58h67v148h-124v-55z" />
    <glyph glyph-name="periodcentered" unicode="&#xb7;" horiz-adv-x="250" 
d="M125 296c35 0 64 -29 64 -64c0 -36 -29 -63 -64 -63s-63 27 -63 63c0 35 28 64 63 64z" />
    <glyph glyph-name="paragraph" unicode="&#xb6;" horiz-adv-x="600" 
d="M463 662v-742h77v-60h-377v60h77v391c-120 0 -181 87 -181 213c0 139 59 198 209 198h272v-60h-77zM322 -80h59v742h-59v-742z" />
    <glyph glyph-name="bullet" unicode="&#x2022;" horiz-adv-x="500" 
d="M425 361c0 -97 -78 -175 -175 -175s-175 77 -175 175c0 97 77 175 175 175c97 0 175 -78 175 -175z" />
    <glyph glyph-name="quotesinglbase" unicode="&#x201a;" horiz-adv-x="222" 
d="M36 -89l62 209h89l-62 -209h-89z" />
    <glyph glyph-name="quotedblbase" unicode="&#x201e;" horiz-adv-x="444" 
d="M54 -89l62 209h89l-62 -209h-89zM239 -89l62 209h89l-62 -209h-89z" />
    <glyph glyph-name="quotedblright" unicode="&#x201d;" horiz-adv-x="444" 
d="M54 513l62 209h89l-62 -209h-89zM239 513l62 209h89l-62 -209h-89z" />
    <glyph glyph-name="guillemotright" unicode="&#xbb;" horiz-adv-x="500" 
d="M184 256l-119 150h79l119 -151l-122 -158h-78zM358 256l-119 150h79l119 -151l-122 -158h-78z" />
    <glyph glyph-name="ellipsis" unicode="&#x2026;" horiz-adv-x="1000" 
d="M167 122c35 0 64 -29 64 -64c0 -36 -29 -63 -64 -63s-63 27 -63 63c0 35 28 64 63 64zM500 122c35 0 64 -29 64 -64c0 -36 -29 -63 -64 -63s-63 27 -63 63c0 35 28 64 63 64zM833 122c35 0 64 -29 64 -64c0 -36 -29 -63 -64 -63s-63 27 -63 63c0 35 28 64 63 64z" />
    <glyph glyph-name="perthousand" unicode="&#x2030;" horiz-adv-x="1000" 
d="M141 -16h-60l411 738h59zM470 223c-48 0 -80 -40 -80 -86s32 -85 80 -85c47 0 83 39 83 85s-36 86 -83 86zM163 654c-48 0 -81 -40 -81 -86s33 -85 81 -85c47 0 84 39 84 85s-37 86 -84 86zM470 291c83 0 153 -71 153 -154c0 -84 -71 -153 -153 -153
c-83 0 -150 71 -150 153c0 83 66 154 150 154zM163 722c83 0 154 -71 154 -154c0 -84 -72 -153 -154 -153c-83 0 -151 71 -151 153c0 83 67 154 151 154zM835 291c83 0 153 -71 153 -154c0 -84 -71 -153 -153 -153c-83 0 -150 71 -150 153c0 83 66 154 150 154zM835 223
c-48 0 -80 -40 -80 -86s32 -85 80 -85c47 0 83 39 83 85s-36 86 -83 86z" />
    <glyph glyph-name="questiondown" unicode="&#xbf;" horiz-adv-x="500" 
d="M313 340v-221c-12 2 -26 3 -39 3c-63 0 -130 -34 -130 -129c0 -70 51 -119 121 -119c76 0 117 66 111 124h83c0 -132 -88 -206 -200 -206s-200 74 -200 206c0 100 62 181 168 195v147h86zM269 408c-35 0 -64 29 -64 64c0 36 29 63 64 63s63 -27 63 -63
c0 -35 -28 -64 -63 -64z" />
    <glyph glyph-name="grave" unicode="`" horiz-adv-x="333" 
d="M36 669h109l89 -141h-67z" />
    <glyph glyph-name="acute" unicode="&#xb4;" horiz-adv-x="333" 
d="M99 528l89 141h109l-131 -141h-67z" />
    <glyph glyph-name="circumflex" unicode="&#x2c6;" horiz-adv-x="333" 
d="M21 528l100 141h92l100 -141h-80l-66 94l-66 -94h-80z" />
    <glyph glyph-name="tilde" unicode="&#x2dc;" horiz-adv-x="333" 
d="M286 653h51c-4 -51 -42 -109 -98 -109c-27 0 -53 10 -78 19c-26 10 -50 19 -75 19c-21 0 -42 -25 -43 -45h-46c2 60 42 108 104 108c27 0 51 -9 74 -19c23 -9 44 -19 64 -19c28 0 44 19 47 46z" />
    <glyph glyph-name="macron" unicode="&#xaf;" horiz-adv-x="333" 
d="M323 561h-312v58h312v-58z" />
    <glyph glyph-name="breve" unicode="&#x2d8;" horiz-adv-x="333" 
d="M12 668h50c9 -59 55 -78 110 -78c53 0 89 26 100 78h49c0 -90 -68 -136 -158 -136c-85 0 -151 48 -151 136z" />
    <glyph glyph-name="dotaccent" unicode="&#x2d9;" horiz-adv-x="333" 
d="M212 539h-91v102h91v-102z" />
    <glyph glyph-name="dieresis" unicode="&#xa8;" horiz-adv-x="333" 
d="M132 539h-91v102h91v-102zM293 539h-91v102h91v-102z" />
    <glyph glyph-name="ring" unicode="&#x2da;" horiz-adv-x="333" 
d="M180 529c-57 0 -101 46 -101 102c0 55 45 102 101 102s102 -47 102 -102c0 -57 -46 -102 -102 -102zM124 631c0 -34 21 -57 56 -57c34 0 57 22 57 57c0 34 -24 55 -57 57c-34 -1 -56 -24 -56 -57z" />
    <glyph glyph-name="cedilla" unicode="&#xb8;" horiz-adv-x="333" 
d="M157 0h48l-47 -60l2 -2c26 11 114 5 114 -70c0 -66 -60 -92 -117 -92c-34 0 -67 8 -98 21l17 40c20 -9 43 -15 65 -15c25 0 57 9 57 40c0 45 -52 45 -87 33l-17 19z" />
    <glyph glyph-name="hungarumlaut" unicode="&#x2dd;" horiz-adv-x="333" 
d="M70 669h109l-131 -141h-67zM243 669h109l-131 -141h-67z" />
    <glyph glyph-name="ogonek" unicode="&#x2db;" horiz-adv-x="333" 
d="M166 0h74c-56 -30 -110 -59 -115 -114c-3 -42 29 -49 48 -50c31 -1 62 9 92 23l14 -39c-26 -16 -59 -33 -128 -34c-50 1 -97 23 -97 85c0 58 46 96 112 129z" />
    <glyph glyph-name="caron" unicode="&#x2c7;" horiz-adv-x="333" 
d="M233 669h80l-100 -141h-92l-100 141h80l66 -94z" />
    <glyph glyph-name="emdash" unicode="&#x2014;" horiz-adv-x="1000" 
d="M1000 225h-1000v60h1000v-60z" />
    <glyph glyph-name="AE" unicode="&#xc6;" horiz-adv-x="1000" 
d="M301 316h213v337h-23zM609 345v-276h275v149h86v-218h-542v69h86v178h-254l-93 -178h83v-69h-238v69h62l326 584h-87v69h657v-193h-86v124h-275v-230h238v-78h-238z" />
    <glyph glyph-name="ordfeminine" unicode="&#xaa;" horiz-adv-x="367" 
d="M257 453v44h-2c-21 -29 -64 -53 -102 -53c-93 0 -150 66 -150 148s57 146 150 146c38 0 81 -20 102 -49v-3h2v43h100v-42h-52v-192h52v-42h-100zM61 592c0 -54 29 -106 97 -106c49 0 97 39 97 106s-48 104 -97 104c-68 0 -97 -51 -97 -104z" />
    <glyph glyph-name="Lslash" unicode="&#x141;" horiz-adv-x="556" 
d="M30 722h274v-69h-93v-233l158 75v-74l-158 -75v-277h224v143h86v-212h-493v69h88v229l-115 -56v74l115 56v281h-86v69z" />
    <glyph glyph-name="Oslash" unicode="&#xd8;" horiz-adv-x="833" 
d="M207 161l358 448c-46 29 -99 43 -149 43c-133 0 -284 -100 -284 -291c0 -85 30 -152 75 -200zM617 569l-361 -450c49 -32 106 -49 160 -49c133 0 284 100 284 291c0 91 -34 161 -83 208zM775 766l-102 -127c75 -68 122 -167 122 -278c0 -209 -165 -377 -379 -377
c-81 0 -156 24 -215 66l-77 -96h-82l109 136c-71 69 -114 164 -114 271c0 209 165 377 379 377c76 0 146 -21 205 -59l69 87h85z" />
    <glyph glyph-name="OE" unicode="&#x152;" horiz-adv-x="1000" 
d="M970 0h-600c-212 0 -341 168 -341 361c0 190 131 361 341 361h601v-188h-86v119h-276v-230h237v-78h-237v-276h275v151h86v-220zM514 116v490c0 40 -40 47 -74 47h-42c-137 0 -274 -86 -274 -289c0 -170 104 -295 274 -295h42c34 0 74 7 74 47z" />
    <glyph glyph-name="ordmasculine" unicode="&#xba;" horiz-adv-x="334" 
d="M328 593c0 -94 -65 -149 -164 -149c-93 0 -159 59 -159 146c0 83 69 148 159 148c93 0 164 -56 164 -145zM270 590c0 64 -40 106 -103 106s-104 -42 -104 -106s41 -104 104 -104s103 40 103 104z" />
    <glyph glyph-name="ae" unicode="&#xe6;" horiz-adv-x="833" 
d="M430 269h289c0 82 -69 135 -149 135c-79 0 -140 -56 -140 -135zM88 378l-32 62c57 26 118 32 180 32c68 0 131 -14 170 -74c44 58 107 74 177 74c149 0 222 -139 222 -270h-377c11 -92 61 -144 156 -144c53 0 108 28 132 76h78c-39 -90 -120 -144 -219 -144
c-75 0 -132 22 -179 82c-45 -48 -124 -82 -190 -82c-93 0 -179 48 -179 149c0 107 90 162 189 162c45 0 94 -20 131 -44c2 13 2 25 2 36c0 79 -41 111 -128 111c-46 0 -91 -6 -133 -26zM228 233c-59 0 -115 -28 -115 -95c0 -52 54 -80 100 -80c53 0 139 25 139 92
c0 60 -76 83 -124 83z" />
    <glyph glyph-name="dotlessi" unicode="&#x131;" horiz-adv-x="333" 
d="M289 0h-245v67h82v328h-79v67h165v-395h77v-67z" />
    <glyph glyph-name="lslash" unicode="&#x142;" horiz-adv-x="333" 
d="M47 722h165v-288l102 62v-74l-102 -62v-293h77v-67h-244v67h81v241l-102 -62v74l102 62v273h-79v67z" />
    <glyph glyph-name="oslash" unicode="&#xf8;" horiz-adv-x="556" 
d="M151 120l202 267c-22 11 -47 17 -75 17c-97 0 -161 -70 -161 -173c0 -45 12 -83 34 -111zM400 349l-205 -268c23 -15 51 -23 83 -23c97 0 161 70 161 173c0 48 -14 89 -39 118zM546 541l-98 -129c50 -45 77 -110 77 -181c0 -131 -91 -241 -247 -241c-49 0 -92 11 -128 32
l-75 -99h-74l101 133c-46 44 -71 106 -71 175c0 131 91 241 247 241c46 0 86 -9 119 -27l73 96h76z" />
    <glyph glyph-name="oe" unicode="&#x153;" horiz-adv-x="944" 
d="M525 269h299c0 52 -61 135 -154 135c-73 0 -139 -58 -145 -135zM910 202h-388c7 -80 70 -144 155 -144s141 59 145 76h78c-39 -95 -121 -144 -222 -144c-86 0 -147 28 -196 100c-52 -68 -121 -100 -201 -100c-149 0 -247 87 -247 241c0 148 108 241 247 241
c123 0 172 -68 199 -103c38 66 114 103 189 103c137 0 241 -96 241 -270zM120 231c0 -103 64 -173 161 -173c102 0 166 70 166 173s-64 173 -166 173c-97 0 -161 -70 -161 -173z" />
    <glyph glyph-name="germandbls" unicode="&#xdf;" 
d="M272 0h-233v67h72v493c0 96 75 178 198 178c117 0 200 -75 200 -178c0 -63 -26 -131 -104 -147v-2c103 -23 162 -106 162 -210c0 -148 -93 -211 -228 -211v76c93 -7 142 55 142 139c0 115 -76 164 -184 164v66c103 21 126 47 126 132c0 64 -49 99 -109 99
c-80 0 -117 -46 -117 -148v-451h75v-67z" />
    <glyph glyph-name="onesuperior" unicode="&#xb9;" horiz-adv-x="300" 
d="M236 288h-172v41h56v342h-56v41h116v-383h56v-41z" />
    <glyph glyph-name="logicalnot" unicode="&#xac;" horiz-adv-x="600" 
d="M455 57v212h-386v75h461v-287h-75z" />
    <glyph glyph-name="mu" unicode="&#xb5;" 
d="M418 139v256h-79v67h165v-395h74v-67h-160v72h-2c-40 -51 -104 -82 -170 -82c-23 0 -44 3 -61 8v-206h-153v67h67v536h-67v67h153v-326c0 -52 38 -74 76 -74c66 0 111 34 157 77z" />
    <glyph glyph-name="trademark" unicode="&#x2122;" horiz-adv-x="990" 
d="M244 699v-309c0 -43 -1 -45 49 -50v-22h-186v22c52 5 51 7 51 50v309h-48c-40 0 -58 -30 -66 -65h-22v88h356v-88h-22c-8 35 -25 65 -65 65h-47zM664 317l-143 297h-2v-206c0 -48 5 -64 52 -68v-22h-132v22c46 4 51 20 51 68v241c0 30 -40 51 -70 51v22h133l146 -296
l154 296h114v-22c-46 -2 -54 -18 -54 -51v-259c0 -43 -2 -45 49 -50v-22h-185v22c51 5 50 7 50 50v225h-2l-149 -298h-12z" />
    <glyph glyph-name="Eth" unicode="&#xd0;" horiz-adv-x="722" 
d="M206 366v-297h87c191 0 296 135 296 296c0 163 -99 288 -306 288h-77v-218h227v-69h-227zM111 366h-86v69h86v218h-86v69h303c182 0 356 -126 356 -361c0 -179 -120 -361 -376 -361h-283v69h86v297z" />
    <glyph glyph-name="onehalf" unicode="&#xbd;" horiz-adv-x="750" 
d="M204 288h-172v41h56v342h-56v41h116v-383h56v-41zM719 0h-273v42l184 209c15 18 26 41 26 65c0 40 -32 71 -76 71c-60 0 -80 -41 -80 -91v-30h-54v29c0 78 48 139 141 139c73 0 129 -53 129 -118c0 -44 -23 -71 -52 -104l-147 -171h148v78h54v-119zM156 -16h-63l441 738
h62z" />
    <glyph glyph-name="plusminus" unicode="&#xb1;" horiz-adv-x="600" 
d="M262 328v134h75v-134h193v-75h-193v-136h-75v136h-193v75h193zM69 0v75h461v-75h-461z" />
    <glyph glyph-name="Thorn" unicode="&#xde;" 
d="M213 166v-97h87v-69h-269v69h87v584h-85v69h269v-69h-89v-37h87c160 0 279 -62 279 -222c0 -186 -157 -228 -282 -228h-84zM213 547v-312h78c152 3 193 83 193 160c0 107 -59 152 -211 152h-60z" />
    <glyph glyph-name="onequarter" unicode="&#xbc;" horiz-adv-x="750" 
d="M523 0v41h62v69h-169v41l172 273h57v-273h47v-41h-47v-69h47v-41h-169zM471 153h114v175h-2zM187 -16h-63l441 738h62zM236 288h-172v41h56v342h-56v41h116v-383h56v-41z" />
    <glyph glyph-name="divide" unicode="&#xf7;" horiz-adv-x="600" 
d="M530 194h-461v75h461v-75zM228 417c0 40 34 72 72 72c39 0 72 -33 72 -72c0 -36 -33 -72 -71 -72c-39 0 -73 33 -73 72zM228 46c0 40 34 72 72 72c39 0 72 -33 72 -72c0 -36 -33 -72 -71 -72c-39 0 -73 33 -73 72z" />
    <glyph glyph-name="brokenbar" unicode="&#xa6;" horiz-adv-x="222" 
d="M74 -175v350h75v-350h-75zM74 325v350h75v-350h-75z" />
    <glyph glyph-name="degree" unicode="&#xb0;" horiz-adv-x="400" 
d="M295 579c0 56 -39 100 -95 100s-95 -44 -95 -100s39 -102 95 -102s95 46 95 102zM57 579c0 80 63 143 143 143s143 -63 143 -143s-63 -145 -143 -145s-143 65 -143 145z" />
    <glyph glyph-name="thorn" unicode="&#xfe;" 
d="M488 231c0 102 -64 173 -149 173s-149 -71 -149 -173s64 -173 149 -173s149 71 149 173zM104 -141v796h-79v67h165v-322c49 51 94 72 167 72c115 0 217 -101 217 -243s-102 -239 -217 -239c-69 0 -125 22 -165 73h-2v-204h86v-67h-250v67h78z" />
    <glyph glyph-name="threequarters" unicode="&#xbe;" horiz-adv-x="750" 
d="M541 0v41h58v69h-165v41l172 273h53v-273h51v-41h-51v-69h51v-41h-169zM484 151h115v175h-3zM230 -16h-63l441 738h62zM40 419h54c0 -50 23 -93 82 -93c56 0 83 27 83 79c0 57 -36 77 -94 80v40c51 0 88 26 88 75c0 44 -28 75 -78 75c-64 0 -81 -57 -78 -106h-54v13
c0 78 50 140 141 140c78 0 129 -59 129 -122c0 -36 -21 -78 -60 -95c35 -14 66 -48 66 -103c0 -86 -72 -123 -135 -123c-84 0 -144 47 -144 116v24z" />
    <glyph glyph-name="twosuperior" unicode="&#xb2;" horiz-adv-x="300" 
d="M286 288h-273v42l184 209c15 18 26 41 26 65c0 40 -32 71 -76 71c-60 0 -80 -41 -80 -91v-30h-54v29c0 78 48 139 141 139c73 0 129 -53 129 -118c0 -44 -23 -71 -52 -104l-147 -171h148v78h54v-119z" />
    <glyph glyph-name="registered" unicode="&#xae;" horiz-adv-x="800" 
d="M400 -16c-208 0 -369 166 -369 376s161 378 369 378s369 -167 369 -378c0 -210 -161 -376 -369 -376zM400 36c169 0 298 149 298 324c0 176 -129 326 -298 326s-298 -151 -298 -326s130 -324 298 -324zM224 552v17h201c66 0 123 -32 123 -102c0 -52 -34 -96 -86 -111
l63 -89c26 -35 55 -71 76 -89v-12h-79c-36 0 -65 86 -125 177h-43v-110c0 -42 -1 -44 50 -49v-18h-180v18c51 5 52 7 52 49v269c0 42 -1 44 -52 50zM354 546v-180h41c50 0 69 44 69 97c0 62 -30 83 -69 83h-41z" />
    <glyph glyph-name="minus" unicode="&#x2212;" horiz-adv-x="600" 
d="M530 194h-461v75h461v-75z" />
    <glyph glyph-name="eth" unicode="&#xf0;" horiz-adv-x="556" 
d="M278 404c-97 0 -161 -70 -161 -173s64 -173 161 -173s161 70 161 173s-64 173 -161 173zM466 698l-113 -54c107 -86 172 -224 172 -386c0 -158 -91 -268 -247 -268s-247 110 -247 241s91 241 247 241c41 0 77 -8 109 -21c-18 68 -55 122 -101 162l-126 -59l-27 34l115 54
c-45 31 -97 49 -148 56l14 34c74 -2 141 -24 199 -59l126 59z" />
    <glyph glyph-name="multiply" unicode="&#xd7;" horiz-adv-x="600" 
d="M248 230l-138 145l53 54l138 -146l136 145l52 -53l-136 -144l137 -145l-53 -53l-137 145l-137 -145l-52 53z" />
    <glyph glyph-name="threesuperior" unicode="&#xb3;" horiz-adv-x="300" 
d="M12 419h54c0 -50 23 -93 82 -93c56 0 83 27 83 79c0 57 -36 77 -94 80v40c51 0 88 26 88 75c0 44 -28 75 -78 75c-64 0 -81 -57 -78 -106h-54v13c0 78 50 140 141 140c78 0 129 -59 129 -122c0 -36 -21 -78 -60 -95c35 -14 66 -48 66 -103c0 -86 -72 -123 -135 -123
c-84 0 -144 47 -144 116v24z" />
    <glyph glyph-name="copyright" unicode="&#xa9;" horiz-adv-x="800" 
d="M31 360c0 210 161 378 369 378s369 -167 369 -378c0 -210 -161 -376 -369 -376s-369 166 -369 376zM102 360c0 -175 130 -324 298 -324c169 0 298 149 298 324c0 176 -129 326 -298 326s-298 -151 -298 -326zM561 274h20l-16 -79c-1 -12 -12 -15 -30 -20
c-19 -8 -63 -20 -113 -20c-132 0 -231 66 -231 216c0 91 65 211 238 211c55 0 82 -11 112 -20c16 -5 23 -14 23 -23v-76h-20c-9 45 -39 95 -116 95c-94 0 -136 -75 -137 -181c-1 -114 38 -198 140 -198c68 0 108 41 130 95z" />
    <glyph glyph-name="Aacute" unicode="&#xc1;" horiz-adv-x="722" 
d="M202 653v69h328v-69h-87l194 -584h67v-69h-251v69h87l-57 178h-250l-59 -178h87v-69h-243v69h69l203 584h-88zM461 316l-100 308h-2l-101 -308h203zM291 766l89 141h109l-131 -141h-67z" />
    <glyph glyph-name="Acircumflex" unicode="&#xc2;" horiz-adv-x="722" 
d="M202 653v69h328v-69h-87l194 -584h67v-69h-251v69h87l-57 178h-250l-59 -178h87v-69h-243v69h69l203 584h-88zM461 316l-100 308h-2l-101 -308h203zM213 766l100 141h92l100 -141h-80l-66 94l-66 -94h-80z" />
    <glyph glyph-name="Adieresis" unicode="&#xc4;" horiz-adv-x="722" 
d="M202 653v69h328v-69h-87l194 -584h67v-69h-251v69h87l-57 178h-250l-59 -178h87v-69h-243v69h69l203 584h-88zM461 316l-100 308h-2l-101 -308h203zM324 777h-91v102h91v-102zM485 777h-91v102h91v-102z" />
    <glyph glyph-name="Agrave" unicode="&#xc0;" horiz-adv-x="722" 
d="M202 653v69h328v-69h-87l194 -584h67v-69h-251v69h87l-57 178h-250l-59 -178h87v-69h-243v69h69l203 584h-88zM461 316l-100 308h-2l-101 -308h203zM228 907h109l89 -141h-67z" />
    <glyph glyph-name="Aring" unicode="&#xc5;" horiz-adv-x="722" 
d="M202 653v69h328v-69h-87l194 -584h67v-69h-251v69h87l-57 178h-250l-59 -178h87v-69h-243v69h69l203 584h-88zM461 316l-100 308h-2l-101 -308h203zM372 767c-57 0 -101 46 -101 102c0 55 45 102 101 102s102 -47 102 -102c0 -57 -46 -102 -102 -102zM316 869
c0 -34 21 -57 56 -57c34 0 57 22 57 57c0 34 -24 55 -57 57c-34 -1 -56 -24 -56 -57z" />
    <glyph glyph-name="Atilde" unicode="&#xc3;" horiz-adv-x="722" 
d="M202 653v69h328v-69h-87l194 -584h67v-69h-251v69h87l-57 178h-250l-59 -178h87v-69h-243v69h69l203 584h-88zM461 316l-100 308h-2l-101 -308h203zM478 891h51c-4 -51 -42 -109 -98 -109c-27 0 -53 10 -78 19c-26 10 -50 19 -75 19c-21 0 -42 -25 -43 -45h-46
c2 60 42 108 104 108c27 0 51 -9 74 -19c23 -9 44 -19 64 -19c28 0 44 19 47 46z" />
    <glyph glyph-name="Ccedilla" unicode="&#xc7;" horiz-adv-x="778" 
d="M697 722v-224h-73c-30 103 -121 154 -225 154c-156 0 -262 -129 -262 -288s106 -294 262 -294c121 0 199 51 243 160h88c-38 -138 -142 -234 -297 -245l-36 -45l2 -2c26 11 114 5 114 -70c0 -66 -60 -92 -117 -92c-34 0 -67 8 -98 21l17 40c20 -9 43 -15 65 -15
c25 0 57 9 57 40c0 45 -52 45 -87 33l-17 19l51 70c-204 8 -342 178 -342 378c0 205 145 376 354 376c80 0 162 -25 223 -77v61h78z" />
    <glyph glyph-name="Eacute" unicode="&#xc9;" 
d="M584 0h-558v69h86v584h-86v69h558v-193h-86v124h-291v-230h245v-78h-245v-276h291v146h86v-215zM238 766l89 141h109l-131 -141h-67z" />
    <glyph glyph-name="Ecircumflex" unicode="&#xca;" 
d="M584 0h-558v69h86v584h-86v69h558v-193h-86v124h-291v-230h245v-78h-245v-276h291v146h86v-215zM160 766l100 141h92l100 -141h-80l-66 94l-66 -94h-80z" />
    <glyph glyph-name="Edieresis" unicode="&#xcb;" 
d="M584 0h-558v69h86v584h-86v69h558v-193h-86v124h-291v-230h245v-78h-245v-276h291v146h86v-215zM271 777h-91v102h91v-102zM432 777h-91v102h91v-102z" />
    <glyph glyph-name="Egrave" unicode="&#xc8;" 
d="M584 0h-558v69h86v584h-86v69h558v-193h-86v124h-291v-230h245v-78h-245v-276h291v146h86v-215zM175 907h109l89 -141h-67z" />
    <glyph glyph-name="Iacute" unicode="&#xcd;" horiz-adv-x="333" 
d="M300 0h-269v69h87v584h-85v69h269v-69h-89v-584h87v-69zM92 766l89 141h109l-131 -141h-67z" />
    <glyph glyph-name="Icircumflex" unicode="&#xce;" horiz-adv-x="333" 
d="M300 0h-269v69h87v584h-85v69h269v-69h-89v-584h87v-69zM14 766l100 141h92l100 -141h-80l-66 94l-66 -94h-80z" />
    <glyph glyph-name="Idieresis" unicode="&#xcf;" horiz-adv-x="333" 
d="M300 0h-269v69h87v584h-85v69h269v-69h-89v-584h87v-69zM125 777h-91v102h91v-102zM286 777h-91v102h91v-102z" />
    <glyph glyph-name="Igrave" unicode="&#xcc;" horiz-adv-x="333" 
d="M300 0h-269v69h87v584h-85v69h269v-69h-89v-584h87v-69zM29 907h109l89 -141h-67z" />
    <glyph glyph-name="Ntilde" unicode="&#xd1;" horiz-adv-x="722" 
d="M111 69v584h-80v69h186l303 -529h2v460h-83v69h254v-69h-81v-653h-82l-327 564h-2v-495h89v-69h-261v69h82zM481 891h51c-4 -51 -42 -109 -98 -109c-27 0 -53 10 -78 19c-26 10 -50 19 -75 19c-21 0 -42 -25 -43 -45h-46c2 60 42 108 104 108c27 0 51 -9 74 -19
c23 -9 44 -19 64 -19c28 0 44 19 47 46z" />
    <glyph glyph-name="Oacute" unicode="&#xd3;" horiz-adv-x="833" 
d="M416 738c214 0 379 -168 379 -377s-165 -377 -379 -377s-379 168 -379 377s165 377 379 377zM416 652c-133 0 -284 -100 -284 -291s151 -291 284 -291s284 100 284 291s-151 291 -284 291zM349 766l89 141h109l-131 -141h-67z" />
    <glyph glyph-name="Ocircumflex" unicode="&#xd4;" horiz-adv-x="833" 
d="M416 738c214 0 379 -168 379 -377s-165 -377 -379 -377s-379 168 -379 377s165 377 379 377zM416 652c-133 0 -284 -100 -284 -291s151 -291 284 -291s284 100 284 291s-151 291 -284 291zM271 766l100 141h92l100 -141h-80l-66 94l-66 -94h-80z" />
    <glyph glyph-name="Odieresis" unicode="&#xd6;" horiz-adv-x="833" 
d="M416 738c214 0 379 -168 379 -377s-165 -377 -379 -377s-379 168 -379 377s165 377 379 377zM416 652c-133 0 -284 -100 -284 -291s151 -291 284 -291s284 100 284 291s-151 291 -284 291zM382 777h-91v102h91v-102zM543 777h-91v102h91v-102z" />
    <glyph glyph-name="Ograve" unicode="&#xd2;" horiz-adv-x="833" 
d="M416 738c214 0 379 -168 379 -377s-165 -377 -379 -377s-379 168 -379 377s165 377 379 377zM416 652c-133 0 -284 -100 -284 -291s151 -291 284 -291s284 100 284 291s-151 291 -284 291zM286 907h109l89 -141h-67z" />
    <glyph glyph-name="Otilde" unicode="&#xd5;" horiz-adv-x="833" 
d="M416 738c214 0 379 -168 379 -377s-165 -377 -379 -377s-379 168 -379 377s165 377 379 377zM416 652c-133 0 -284 -100 -284 -291s151 -291 284 -291s284 100 284 291s-151 291 -284 291zM536 891h51c-4 -51 -42 -109 -98 -109c-27 0 -53 10 -78 19
c-26 10 -50 19 -75 19c-21 0 -42 -25 -43 -45h-46c2 60 42 108 104 108c27 0 51 -9 74 -19c23 -9 44 -19 64 -19c28 0 44 19 47 46z" />
    <glyph glyph-name="Scaron" unicode="&#x160;" 
d="M46 245h77c18 -104 95 -179 202 -179c75 0 153 43 153 125c0 202 -434 81 -434 355c0 131 102 192 222 192c76 0 127 -24 181 -77v61h78v-212h-80c-14 84 -86 146 -171 146c-92 0 -140 -49 -140 -107c0 -173 434 -63 434 -352c0 -125 -103 -213 -224 -213
c-91 0 -147 19 -220 76v-60h-78v245zM372 907h80l-100 -141h-92l-100 141h80l66 -94z" />
    <glyph glyph-name="Uacute" unicode="&#xda;" horiz-adv-x="722" 
d="M434 653v69h257v-69h-76v-397c0 -180 -103 -272 -254 -272s-254 92 -254 272v397h-76v69h257v-69h-86v-425c0 -108 68 -158 159 -158s159 50 159 158v425h-86zM294 766l89 141h109l-131 -141h-67z" />
    <glyph glyph-name="Ucircumflex" unicode="&#xdb;" horiz-adv-x="722" 
d="M434 653v69h257v-69h-76v-397c0 -180 -103 -272 -254 -272s-254 92 -254 272v397h-76v69h257v-69h-86v-425c0 -108 68 -158 159 -158s159 50 159 158v425h-86zM216 766l100 141h92l100 -141h-80l-66 94l-66 -94h-80z" />
    <glyph glyph-name="Udieresis" unicode="&#xdc;" horiz-adv-x="722" 
d="M434 653v69h257v-69h-76v-397c0 -180 -103 -272 -254 -272s-254 92 -254 272v397h-76v69h257v-69h-86v-425c0 -108 68 -158 159 -158s159 50 159 158v425h-86zM327 777h-91v102h91v-102zM488 777h-91v102h91v-102z" />
    <glyph glyph-name="Ugrave" unicode="&#xd9;" horiz-adv-x="722" 
d="M434 653v69h257v-69h-76v-397c0 -180 -103 -272 -254 -272s-254 92 -254 272v397h-76v69h257v-69h-86v-425c0 -108 68 -158 159 -158s159 50 159 158v425h-86zM231 907h109l89 -141h-67z" />
    <glyph glyph-name="Yacute" unicode="&#xdd;" horiz-adv-x="667" 
d="M20 653v69h254v-69h-83l147 -239h2l142 239h-74v69h239v-69h-72l-194 -322v-262h85v-69h-266v69h86v255l-192 329h-74zM278 766l89 141h109l-131 -141h-67z" />
    <glyph glyph-name="Ydieresis" unicode="&#x178;" horiz-adv-x="667" 
d="M20 653v69h254v-69h-83l147 -239h2l142 239h-74v69h239v-69h-72l-194 -322v-262h85v-69h-266v69h86v255l-192 329h-74zM311 777h-91v102h91v-102zM472 777h-91v102h91v-102z" />
    <glyph glyph-name="Zcaron" unicode="&#x17d;" horiz-adv-x="556" 
d="M40 527v195h494v-69l-394 -584h309v153h86v-222h-513v68l395 585h-291v-126h-86zM357 907h80l-100 -141h-92l-100 141h80l66 -94z" />
    <glyph glyph-name="aacute" unicode="&#xe1;" 
d="M496 395v-328h78v-67h-154v70h-3c-32 -47 -98 -80 -157 -80c-143 0 -229 107 -229 242s86 240 229 240c59 0 125 -34 157 -80h3v70h154v-67h-78zM117 232c0 -89 46 -174 151 -174c75 0 150 64 150 174s-75 172 -150 172c-105 0 -151 -86 -151 -172zM247 528l89 141h109
l-131 -141h-67z" />
    <glyph glyph-name="acircumflex" unicode="&#xe2;" 
d="M496 395v-328h78v-67h-154v70h-3c-32 -47 -98 -80 -157 -80c-143 0 -229 107 -229 242s86 240 229 240c59 0 125 -34 157 -80h3v70h154v-67h-78zM117 232c0 -89 46 -174 151 -174c75 0 150 64 150 174s-75 172 -150 172c-105 0 -151 -86 -151 -172zM169 528l100 141h92
l100 -141h-80l-66 94l-66 -94h-80z" />
    <glyph glyph-name="adieresis" unicode="&#xe4;" 
d="M496 395v-328h78v-67h-154v70h-3c-32 -47 -98 -80 -157 -80c-143 0 -229 107 -229 242s86 240 229 240c59 0 125 -34 157 -80h3v70h154v-67h-78zM117 232c0 -89 46 -174 151 -174c75 0 150 64 150 174s-75 172 -150 172c-105 0 -151 -86 -151 -172zM280 539h-91v102h91
v-102zM441 539h-91v102h91v-102z" />
    <glyph glyph-name="agrave" unicode="&#xe0;" 
d="M496 395v-328h78v-67h-154v70h-3c-32 -47 -98 -80 -157 -80c-143 0 -229 107 -229 242s86 240 229 240c59 0 125 -34 157 -80h3v70h154v-67h-78zM117 232c0 -89 46 -174 151 -174c75 0 150 64 150 174s-75 172 -150 172c-105 0 -151 -86 -151 -172zM184 669h109l89 -141
h-67z" />
    <glyph glyph-name="aring" unicode="&#xe5;" 
d="M496 395v-328h78v-67h-154v70h-3c-32 -47 -98 -80 -157 -80c-143 0 -229 107 -229 242s86 240 229 240c59 0 125 -34 157 -80h3v70h154v-67h-78zM117 232c0 -89 46 -174 151 -174c75 0 150 64 150 174s-75 172 -150 172c-105 0 -151 -86 -151 -172zM328 529
c-57 0 -101 46 -101 102c0 55 45 102 101 102s102 -47 102 -102c0 -57 -46 -102 -102 -102zM272 631c0 -34 21 -57 56 -57c34 0 57 22 57 57c0 34 -24 55 -57 57c-34 -1 -56 -24 -56 -57z" />
    <glyph glyph-name="atilde" unicode="&#xe3;" 
d="M496 395v-328h78v-67h-154v70h-3c-32 -47 -98 -80 -157 -80c-143 0 -229 107 -229 242s86 240 229 240c59 0 125 -34 157 -80h3v70h154v-67h-78zM117 232c0 -89 46 -174 151 -174c75 0 150 64 150 174s-75 172 -150 172c-105 0 -151 -86 -151 -172zM434 653h51
c-4 -51 -42 -109 -98 -109c-27 0 -53 10 -78 19c-26 10 -50 19 -75 19c-21 0 -42 -25 -43 -45h-46c2 60 42 108 104 108c27 0 51 -9 74 -19c23 -9 44 -19 64 -19c28 0 44 19 47 46z" />
    <glyph glyph-name="ccedilla" unicode="&#xe7;" horiz-adv-x="500" 
d="M455 462v-159h-64c-16 60 -71 101 -133 101c-82 0 -143 -76 -143 -172c0 -106 57 -174 145 -174c64 0 117 38 159 83l51 -46c-48 -56 -109 -95 -183 -103l-40 -52l2 -2c26 11 114 5 114 -70c0 -66 -60 -92 -117 -92c-34 0 -67 8 -98 21l17 40c20 -9 43 -15 65 -15
c25 0 57 9 57 40c0 45 -52 45 -87 33l-17 19l56 78c-138 7 -210 109 -210 239c0 136 79 241 227 241c45 0 103 -23 129 -60h2v50h68z" />
    <glyph glyph-name="eacute" unicode="&#xe9;" horiz-adv-x="556" 
d="M518 202h-401c8 -90 82 -144 153 -144c70 0 126 30 153 76h85c-25 -88 -132 -144 -239 -144c-128 0 -238 101 -238 239s110 243 244 243c145 0 243 -118 243 -270zM117 269h315c0 73 -77 135 -158 135c-79 0 -149 -60 -157 -135zM211 528l89 141h109l-131 -141h-67z" />
    <glyph glyph-name="ecircumflex" unicode="&#xea;" horiz-adv-x="556" 
d="M518 202h-401c8 -90 82 -144 153 -144c70 0 126 30 153 76h85c-25 -88 -132 -144 -239 -144c-128 0 -238 101 -238 239s110 243 244 243c145 0 243 -118 243 -270zM117 269h315c0 73 -77 135 -158 135c-79 0 -149 -60 -157 -135zM133 528l100 141h92l100 -141h-80l-66 94
l-66 -94h-80z" />
    <glyph glyph-name="edieresis" unicode="&#xeb;" horiz-adv-x="556" 
d="M518 202h-401c8 -90 82 -144 153 -144c70 0 126 30 153 76h85c-25 -88 -132 -144 -239 -144c-128 0 -238 101 -238 239s110 243 244 243c145 0 243 -118 243 -270zM117 269h315c0 73 -77 135 -158 135c-79 0 -149 -60 -157 -135zM244 539h-91v102h91v-102zM405 539h-91
v102h91v-102z" />
    <glyph glyph-name="egrave" unicode="&#xe8;" horiz-adv-x="556" 
d="M518 202h-401c8 -90 82 -144 153 -144c70 0 126 30 153 76h85c-25 -88 -132 -144 -239 -144c-128 0 -238 101 -238 239s110 243 244 243c145 0 243 -118 243 -270zM117 269h315c0 73 -77 135 -158 135c-79 0 -149 -60 -157 -135zM148 669h109l89 -141h-67z" />
    <glyph glyph-name="iacute" unicode="&#xed;" horiz-adv-x="333" 
d="M289 0h-245v67h82v328h-79v67h165v-395h77v-67zM85 528l89 141h109l-131 -141h-67z" />
    <glyph glyph-name="icircumflex" unicode="&#xee;" horiz-adv-x="333" 
d="M289 0h-245v67h82v328h-79v67h165v-395h77v-67zM7 528l100 141h92l100 -141h-80l-66 94l-66 -94h-80z" />
    <glyph glyph-name="idieresis" unicode="&#xef;" horiz-adv-x="333" 
d="M289 0h-245v67h82v328h-79v67h165v-395h77v-67zM118 539h-91v102h91v-102zM279 539h-91v102h91v-102z" />
    <glyph glyph-name="igrave" unicode="&#xec;" horiz-adv-x="333" 
d="M289 0h-245v67h82v328h-79v67h165v-395h77v-67zM22 669h109l89 -141h-67z" />
    <glyph glyph-name="ntilde" unicode="&#xf1;" 
d="M195 462v-70c37 41 108 80 165 80c73 0 142 -46 142 -134v-271h71v-67h-236v67h79v250c0 48 -23 83 -64 83c-66 0 -111 -34 -157 -77v-256h76v-67h-239v67h77v328h-77v67h163zM425 653h51c-4 -51 -42 -109 -98 -109c-27 0 -53 10 -78 19c-26 10 -50 19 -75 19
c-21 0 -42 -25 -43 -45h-46c2 60 42 108 104 108c27 0 51 -9 74 -19c23 -9 44 -19 64 -19c28 0 44 19 47 46z" />
    <glyph glyph-name="oacute" unicode="&#xf3;" horiz-adv-x="556" 
d="M31 231c0 131 91 241 247 241s247 -110 247 -241s-91 -241 -247 -241s-247 110 -247 241zM278 404c-97 0 -161 -70 -161 -173s64 -173 161 -173s161 70 161 173s-64 173 -161 173zM211 528l89 141h109l-131 -141h-67z" />
    <glyph glyph-name="ocircumflex" unicode="&#xf4;" horiz-adv-x="556" 
d="M31 231c0 131 91 241 247 241s247 -110 247 -241s-91 -241 -247 -241s-247 110 -247 241zM278 404c-97 0 -161 -70 -161 -173s64 -173 161 -173s161 70 161 173s-64 173 -161 173zM133 528l100 141h92l100 -141h-80l-66 94l-66 -94h-80z" />
    <glyph glyph-name="odieresis" unicode="&#xf6;" horiz-adv-x="556" 
d="M31 231c0 131 91 241 247 241s247 -110 247 -241s-91 -241 -247 -241s-247 110 -247 241zM278 404c-97 0 -161 -70 -161 -173s64 -173 161 -173s161 70 161 173s-64 173 -161 173zM244 539h-91v102h91v-102zM405 539h-91v102h91v-102z" />
    <glyph glyph-name="ograve" unicode="&#xf2;" horiz-adv-x="556" 
d="M31 231c0 131 91 241 247 241s247 -110 247 -241s-91 -241 -247 -241s-247 110 -247 241zM278 404c-97 0 -161 -70 -161 -173s64 -173 161 -173s161 70 161 173s-64 173 -161 173zM148 669h109l89 -141h-67z" />
    <glyph glyph-name="otilde" unicode="&#xf5;" horiz-adv-x="556" 
d="M31 231c0 131 91 241 247 241s247 -110 247 -241s-91 -241 -247 -241s-247 110 -247 241zM278 404c-97 0 -161 -70 -161 -173s64 -173 161 -173s161 70 161 173s-64 173 -161 173zM398 653h51c-4 -51 -42 -109 -98 -109c-27 0 -53 10 -78 19c-26 10 -50 19 -75 19
c-21 0 -42 -25 -43 -45h-46c2 60 42 108 104 108c27 0 51 -9 74 -19c23 -9 44 -19 64 -19c28 0 44 19 47 46z" />
    <glyph glyph-name="scaron" unicode="&#x161;" horiz-adv-x="500" 
d="M119 46v-46h-67v150h67c21 -67 93 -92 148 -92c40 0 113 4 113 67c0 118 -328 -7 -328 214c0 96 83 133 168 133c51 0 101 -20 140 -53v43h67v-141h-71c-8 26 -24 47 -46 61c-21 14 -46 22 -73 22c-59 0 -107 -11 -107 -63c0 -116 328 -10 328 -209
c0 -103 -88 -142 -180 -142c-57 0 -120 12 -159 56zM317 669h80l-100 -141h-92l-100 141h80l66 -94z" />
    <glyph glyph-name="uacute" unicode="&#xfa;" 
d="M418 0v72h-2c-40 -51 -104 -82 -170 -82c-99 0 -150 48 -147 151v254h-67v67h153v-326c0 -52 38 -74 76 -74c66 0 111 34 157 77v256h-79v67h165v-395h74v-67h-160zM224 528l89 141h109l-131 -141h-67z" />
    <glyph glyph-name="ucircumflex" unicode="&#xfb;" 
d="M418 0v72h-2c-40 -51 -104 -82 -170 -82c-99 0 -150 48 -147 151v254h-67v67h153v-326c0 -52 38 -74 76 -74c66 0 111 34 157 77v256h-79v67h165v-395h74v-67h-160zM146 528l100 141h92l100 -141h-80l-66 94l-66 -94h-80z" />
    <glyph glyph-name="udieresis" unicode="&#xfc;" 
d="M418 0v72h-2c-40 -51 -104 -82 -170 -82c-99 0 -150 48 -147 151v254h-67v67h153v-326c0 -52 38 -74 76 -74c66 0 111 34 157 77v256h-79v67h165v-395h74v-67h-160zM257 539h-91v102h91v-102zM418 539h-91v102h91v-102z" />
    <glyph glyph-name="ugrave" unicode="&#xf9;" 
d="M418 0v72h-2c-40 -51 -104 -82 -170 -82c-99 0 -150 48 -147 151v254h-67v67h153v-326c0 -52 38 -74 76 -74c66 0 111 34 157 77v256h-79v67h165v-395h74v-67h-160zM161 669h109l89 -141h-67z" />
    <glyph glyph-name="yacute" unicode="&#xfd;" horiz-adv-x="556" 
d="M15 462h216v-67h-72l110 -278h2l120 278h-69v67h208v-67h-55l-239 -536h87v-67h-249v67h82l69 157l-154 379h-56v67zM211 528l89 141h109l-131 -141h-67z" />
    <glyph glyph-name="ydieresis" unicode="&#xff;" horiz-adv-x="556" 
d="M15 462h216v-67h-72l110 -278h2l120 278h-69v67h208v-67h-55l-239 -536h87v-67h-249v67h82l69 157l-154 379h-56v67zM244 539h-91v102h91v-102zM405 539h-91v102h91v-102z" />
    <glyph glyph-name="zcaron" unicode="&#x17e;" horiz-adv-x="444" 
d="M410 462v-68l-279 -327h211v99h78v-166h-397v69l279 326h-192v-86h-78v153h378zM289 669h80l-100 -141h-92l-100 141h80l66 -94z" />
    <glyph glyph-name="Delta" unicode="&#x2206;" horiz-adv-x="587" 
d="M29 0v53l222 676h90l217 -674v-55h-529zM108 66h367l-123 374c-16 56 -47 139 -58 186h-3c-9 -41 -37 -115 -53 -172z" />
    <glyph glyph-name="Omega" unicode="&#x2126;" horiz-adv-x="641" 
d="M174 68v3c-63 66 -119 176 -119 315c0 199 114 336 268 336c163 0 261 -156 261 -330c0 -144 -60 -261 -120 -321v-3h133v-68h-219v49c65 52 127 166 127 325c-1 132 -60 279 -183 279c-116 0 -188 -122 -188 -281c0 -148 63 -273 127 -323v-49h-219v68h132z" />
    <glyph glyph-name="uni03BC" unicode="&#x3bc;" 
d="M418 139v256h-79v67h165v-395h74v-67h-160v72h-2c-40 -51 -104 -82 -170 -82c-23 0 -44 3 -61 8v-206h-153v67h67v536h-67v67h153v-326c0 -52 38 -74 76 -74c66 0 111 34 157 77z" />
    <glyph glyph-name="pi" unicode="&#x3c0;" horiz-adv-x="524" 
d="M499 460h-71v-316c0 -79 6 -117 13 -144h-76c-8 18 -15 61 -15 139v321h-155c-5 -128 -31 -357 -65 -460h-77c35 114 61 326 64 460c-53 0 -78 -5 -96 -11l-12 54c23 15 63 27 134 27h362z" />
    <glyph glyph-name="Euro" unicode="&#x20ac;" horiz-adv-x="500" 
d="M492 95c-54 -67 -126 -111 -215 -111c-160 0 -212 87 -212 242v36h-69l20 67h49v63h-69l20 67h49v15c0 164 90 248 223 248c40 0 97 -17 123 -48v32h68v-159h-65c-5 30 -17 54 -37 71s-49 26 -89 26c-90 0 -137 -52 -137 -167v-18h248l-20 -67h-228v-63h209l-20 -67h-189
v-35c0 -96 14 -165 127 -165c64 0 117 36 154 83z" />
    <glyph glyph-name="afii61289" unicode="&#x2113;" horiz-adv-x="447" 
d="M391 144l36 -33c-40 -82 -100 -122 -171 -122c-111 0 -152 86 -155 188v14c-16 -14 -35 -30 -52 -45l-23 46c27 24 52 46 74 70v276c0 181 73 242 146 242c77 0 114 -70 114 -164c0 -125 -73 -247 -185 -366l1 -41c0 -113 43 -156 95 -156c55 0 97 48 120 91zM175 538
v-208c76 92 134 191 134 287c0 63 -17 101 -62 101c-34 0 -72 -44 -72 -180z" />
    <glyph glyph-name="estimated" unicode="&#x212e;" horiz-adv-x="890" 
d="M854 343h-663c-4 0 -6 -1 -6 -5v-201c0 -8 3 -16 9 -22c64 -67 153 -110 251 -110c106 0 200 48 264 123h59c-73 -87 -192 -143 -324 -143c-226 0 -410 164 -410 368s184 369 410 369c227 0 410 -165 410 -369v-10zM704 369v202c0 9 -4 17 -10 24
c-65 63 -152 105 -249 105s-186 -43 -250 -108c-7 -7 -10 -16 -10 -26v-197c0 -2 2 -7 6 -7h508c4 0 5 5 5 7z" />
    <glyph glyph-name="partialdiff" unicode="&#x2202;" horiz-adv-x="503" 
d="M95 680l-26 61c31 26 79 55 154 55c119 0 234 -115 234 -383c0 -255 -84 -424 -241 -424c-118 0 -176 112 -176 234c0 162 93 263 196 263c79 0 127 -55 142 -85h2v40c0 166 -73 287 -166 287c-55 0 -94 -25 -119 -48zM223 58h1c83 0 136 125 147 262
c-13 42 -57 99 -122 99c-73 0 -131 -91 -131 -198c0 -97 40 -163 105 -163z" />
    <glyph glyph-name="product" unicode="&#x220f;" horiz-adv-x="640" 
d="M614 637h-95v-735h-78v735h-243v-735h-77v735h-96v75h589v-75z" />
    <glyph glyph-name="summation" unicode="&#x2211;" horiz-adv-x="504" 
d="M484 -98h-462v55l241 349l-231 348v58h437v-70h-331v-3l214 -319l-234 -337v-4h366v-77z" />
    <glyph glyph-name="uni2219" unicode="&#x2219;" horiz-adv-x="250" 
d="M125 296c35 0 64 -29 64 -64c0 -36 -29 -63 -64 -63s-63 27 -63 63c0 35 28 64 63 64z" />
    <glyph glyph-name="radical" unicode="&#x221a;" horiz-adv-x="532" 
d="M530 848l-203 -998h-67l-145 469l-68 -26l-15 49l133 52l110 -360c6 -28 14 -60 17 -80h1c3 19 8 51 13 80l167 814h57z" />
    <glyph glyph-name="infinity" unicode="&#x221e;" horiz-adv-x="736" 
d="M688 296v-1c0 -94 -70 -154 -146 -154c-59 0 -107 34 -173 112c-50 -58 -101 -112 -179 -112c-77 0 -143 64 -143 151c0 88 63 153 150 153c71 0 125 -52 175 -112c47 53 95 112 176 112c83 -1 140 -61 140 -149zM197 190h1c59 0 104 56 144 100c-42 52 -84 107 -150 107
c-60 0 -94 -49 -93 -107c0 -55 40 -100 98 -100zM543 397h-1c-62 0 -112 -69 -144 -103c61 -70 96 -104 147 -104c59 0 92 53 92 102c0 65 -39 105 -94 105z" />
    <glyph glyph-name="integral" unicode="&#x222b;" horiz-adv-x="346" 
d="M326 858l-12 -57c-8 5 -21 9 -33 9c-16 0 -34 -7 -47 -25c-23 -29 -30 -83 -30 -180c0 -160 12 -341 12 -510c0 -107 -17 -169 -39 -206c-21 -38 -60 -54 -99 -54c-25 0 -50 8 -61 15l13 60c8 -4 23 -11 41 -11c15 0 32 8 42 24c17 24 30 71 30 172
c0 170 -13 354 -13 518c0 112 14 175 51 217c24 27 59 41 93 41c20 0 42 -7 52 -13z" />
    <glyph glyph-name="approxequal" unicode="&#x2248;" horiz-adv-x="515" 
d="M442 433l32 -27c-24 -52 -64 -94 -121 -94c-36 0 -62 14 -106 39c-29 18 -55 33 -85 33c-42 0 -66 -34 -89 -71l-33 26c27 57 74 94 128 94c46 0 79 -25 103 -38c32 -18 54 -34 85 -34c38 0 61 27 86 72zM442 269l32 -27c-25 -52 -63 -94 -121 -94c-36 0 -62 14 -106 39
c-30 18 -54 34 -84 34c-44 0 -68 -35 -90 -72l-33 26c27 57 74 94 128 94c46 0 79 -24 103 -37c31 -18 54 -34 86 -34c37 0 60 26 85 71z" />
    <glyph glyph-name="notequal" unicode="&#x2260;" horiz-adv-x="515" 
d="M369 498l-41 -90h140v-51h-159l-61 -136h220v-51h-239l-48 -109l-40 17l41 92h-135v51h155l60 136h-215v51h234l47 107z" />
    <glyph glyph-name="lessequal" unicode="&#x2264;" horiz-adv-x="515" 
d="M465 105l-413 217v54l413 217v-62l-360 -180v-2l360 -182v-62zM468 13h-420v53h420v-53z" />
    <glyph glyph-name="greaterequal" unicode="&#x2265;" horiz-adv-x="515" 
d="M53 593l413 -217v-54l-413 -217v62l360 181v2l-360 181v62zM468 13h-420v53h420v-53z" />
    <glyph glyph-name="lozenge" unicode="&#x25ca;" horiz-adv-x="533" 
d="M482 355l-185 -397h-65l-181 397l184 398h65zM410 353l-125 272c-7 18 -14 42 -17 58h-3c-4 -17 -10 -38 -18 -58l-125 -268l126 -274c8 -21 13 -43 16 -56h4c3 14 10 42 16 55z" />
    <glyph glyph-name="uni00A0" unicode="&#xa0;" horiz-adv-x="250" 
 />
    <glyph glyph-name="uni00AD" unicode="&#xad;" horiz-adv-x="333" 
d="M290 216h-247v78h247v-78z" />
    <glyph glyph-name="uni02C9" unicode="&#x2c9;" horiz-adv-x="333" 
d="M323 561h-312v58h312v-58z" />
    <glyph glyph-name="uni03A9" unicode="&#x3a9;" horiz-adv-x="641" 
d="M174 68v3c-63 66 -119 176 -119 315c0 199 114 336 268 336c163 0 261 -156 261 -330c0 -144 -60 -261 -120 -321v-3h133v-68h-219v49c65 52 127 166 127 325c-1 132 -60 279 -183 279c-116 0 -188 -122 -188 -281c0 -148 63 -273 127 -323v-49h-219v68h132z" />
    <glyph glyph-name="uni2215" unicode="&#x2215;" horiz-adv-x="167" 
d="M-105 -16h-63l441 738h62z" />
    </font>
</defs>
</svg>
